<svg width="200" height="56" viewBox="0 0 200 56" fill="none" xmlns="http://www.w3.org/2000/svg">
<path fill-rule="evenodd" clip-rule="evenodd" d="M68.5693 16.7499L57.0598 39.2499H46.249L51.0658 29.9249H50.8496C46.8759 35.0834 40.9469 38.4793 32.499 39.2499V30.054C32.499 30.054 37.9033 29.7348 41.0804 26.3946H32.499V16.7501H42.1435V24.6825L42.36 24.6816L46.3011 16.7501H53.595V24.6322L53.8114 24.6319L57.9004 16.7499H68.5693Z" fill="black"/>
<path d="M131.332 36.7664H134.438V18.9374H131.332V36.7664Z" fill="black"/>
<path fill-rule="evenodd" clip-rule="evenodd" d="M114.208 36.5843C114.883 36.8649 115.57 37.0053 116.268 37.0053C117.42 37.0053 118.452 36.7247 119.362 36.1633C120.272 35.6021 120.978 34.8284 121.479 33.8423C121.979 32.8487 122.229 31.7222 122.229 30.4631C122.229 29.2039 121.972 28.0776 121.456 27.0839C120.94 26.0903 120.223 25.3204 119.305 24.7742C118.388 24.2205 117.345 23.9475 116.176 23.955C115.433 23.955 114.72 24.0992 114.037 24.3874C113.355 24.6756 112.786 25.0852 112.331 25.6162C112.296 25.6566 112.262 25.6974 112.228 25.7387V18.9488H109.111V36.7664H112.206L112.199 35.1019C112.279 35.2001 112.365 35.2959 112.456 35.3897C112.949 35.8979 113.533 36.2961 114.208 36.5843ZM117.394 33.7058C116.886 34.0168 116.305 34.1723 115.653 34.1723C115.008 34.1723 114.417 34.0129 113.878 33.6944C113.34 33.3682 112.911 32.9246 112.592 32.3632C112.281 31.8019 112.126 31.1647 112.126 30.4517C112.118 29.7387 112.27 29.1016 112.581 28.5403C112.9 27.9714 113.328 27.5314 113.867 27.2205C114.405 26.9019 115.001 26.7464 115.653 26.754C116.305 26.7464 116.886 26.8981 117.394 27.2091C117.91 27.5125 118.304 27.9486 118.577 28.5175C118.858 29.0788 118.998 29.7236 118.998 30.4517C118.998 31.1799 118.858 31.8247 118.577 32.3859C118.304 32.9473 117.91 33.3872 117.394 33.7058Z" fill="black"/>
<path d="M73.0691 20.0183H76.619L79.7945 31.6153L83.1726 20.0183H86.1308L89.7945 31.3825L92.8437 20.0183H96.0977L91.2963 36.7664H88.2357L84.5102 25.6644L81.0905 36.7664H77.9957L73.0691 20.0183Z" fill="black"/>
<path fill-rule="evenodd" clip-rule="evenodd" d="M101.34 37.0621C100.104 37.0698 98.9888 36.7966 97.9952 36.243C97.0091 35.6816 96.2317 34.9041 95.6627 33.9105C95.1014 32.9169 94.8208 31.7829 94.8208 30.5085C94.8208 29.2721 95.1091 28.1534 95.6856 27.1521C96.2619 26.1509 97.0432 25.3696 98.0293 24.8083C99.0154 24.247 100.115 23.9664 101.329 23.9664C102.694 23.9664 103.889 24.2698 104.913 24.8766C105.944 25.4834 106.714 26.3443 107.223 27.4593C107.738 28.5668 107.924 29.8373 107.78 31.2709H98.0342C98.0614 31.842 98.2039 32.3616 98.4617 32.8296C98.7499 33.3454 99.1519 33.7474 99.6677 34.0356C100.184 34.3239 100.76 34.468 101.397 34.468C101.883 34.4604 102.334 34.377 102.751 34.2178C103.168 34.0509 103.521 33.8271 103.809 33.5464C104.105 33.2658 104.314 32.9473 104.435 32.5908H107.689C107.492 33.463 107.097 34.2405 106.506 34.9231C105.914 35.5983 105.171 36.1254 104.276 36.5046C103.381 36.8839 102.402 37.0698 101.34 37.0621ZM98.4731 28.142C98.2913 28.459 98.1653 28.8003 98.0952 29.166H104.556C104.509 28.704 104.366 28.283 104.128 27.9031C103.855 27.4555 103.483 27.1104 103.013 26.8677C102.543 26.6174 102.012 26.4922 101.42 26.4922C100.79 26.4922 100.218 26.6363 99.7018 26.9246C99.1861 27.2128 98.7764 27.6186 98.4731 28.142Z" fill="black"/>
<path d="M124.517 24.2281C124.517 23.2117 124.748 22.309 125.211 21.5202C125.673 20.7237 126.322 20.1055 127.156 19.6656C127.998 19.2181 128.981 18.9867 130.103 18.9716V21.7363C129.58 21.7439 129.132 21.8539 128.761 22.0663C128.397 22.2711 128.116 22.5707 127.919 22.9651C127.737 23.3283 127.639 23.7492 127.625 24.2281H130.035V26.8563H127.623V36.7664H124.517V26.8563H122.514V24.2281H124.517Z" fill="black"/>
<path fill-rule="evenodd" clip-rule="evenodd" d="M142.334 37.0393C141.067 37.0393 139.933 36.7625 138.932 36.2088C137.938 35.6475 137.157 34.8738 136.588 33.8877C136.027 32.8941 135.746 31.7677 135.746 30.5085C135.746 29.2418 136.027 28.1116 136.588 27.118C137.157 26.1167 137.938 25.3392 138.932 24.7855C139.933 24.2318 141.067 23.9549 142.334 23.9549C143.608 23.9549 144.746 24.2318 145.747 24.7855C146.756 25.3392 147.541 26.1129 148.102 27.1066C148.664 28.1002 148.948 29.2342 148.956 30.5085C148.948 31.7677 148.664 32.8941 148.102 33.8877C147.549 34.8738 146.767 35.6475 145.758 36.2088C144.75 36.7625 143.608 37.0393 142.334 37.0393ZM142.334 34.1836C143.001 34.1836 143.593 34.0318 144.109 33.7285C144.625 33.4175 145.023 32.9851 145.303 32.4313C145.584 31.8701 145.724 31.2291 145.724 30.5085C145.724 29.7803 145.584 29.1356 145.303 28.5743C145.023 28.013 144.625 27.5807 144.109 27.2772C143.593 26.9663 143.001 26.8108 142.334 26.8108C141.674 26.8108 141.086 26.9663 140.57 27.2772C140.062 27.5807 139.668 28.013 139.387 28.5743C139.106 29.1356 138.97 29.7803 138.977 30.5085C138.977 31.2291 139.118 31.8701 139.398 32.4313C139.687 32.9851 140.081 33.4175 140.582 33.7285C141.09 34.0318 141.674 34.1836 142.334 34.1836Z" fill="black"/>
<path d="M152.312 24.2281H148.853L152.597 36.7664H155.623L158.085 28.7581L160.743 36.7664H163.724L167.479 24.2281H164.35L162.22 32.0324L159.866 24.2281H156.841L154.498 32.2043L152.312 24.2281Z" fill="black"/>
</svg>
