<svg width="32" height="32" viewBox="0 0 32 32" fill="none" xmlns="http://www.w3.org/2000/svg">
<g id="vuesax/twotone/element-plus">
<g id="element-plus">
<path id="Vector" d="M29.3333 11.0265V5.63984C29.3333 3.51984 28.48 2.6665 26.36 2.6665H20.9733C18.8533 2.6665 18 3.51984 18 5.63984V11.0265C18 13.1465 18.8533 13.9998 20.9733 13.9998H26.36C28.48 13.9998 29.3333 13.1465 29.3333 11.0265Z" stroke="#232323" stroke-width="2" stroke-linecap="round" stroke-linejoin="round"/>
<path id="Vector_2" d="M13.9998 11.3598V5.3065C13.9998 3.4265 13.1465 2.6665 11.0265 2.6665H5.63984C3.51984 2.6665 2.6665 3.4265 2.6665 5.3065V11.3465C2.6665 13.2398 3.51984 13.9865 5.63984 13.9865H11.0265C13.1465 13.9998 13.9998 13.2398 13.9998 11.3598Z" stroke="#232323" stroke-width="2" stroke-linecap="round" stroke-linejoin="round"/>
<path id="Vector_3" d="M13.9998 26.3598V20.9731C13.9998 18.8531 13.1465 17.9998 11.0265 17.9998H5.63984C3.51984 17.9998 2.6665 18.8531 2.6665 20.9731V26.3598C2.6665 28.4798 3.51984 29.3331 5.63984 29.3331H11.0265C13.1465 29.3331 13.9998 28.4798 13.9998 26.3598Z" stroke="#232323" stroke-width="2" stroke-linecap="round" stroke-linejoin="round"/>
<g id="Group 666" opacity="0.4">
<path id="Vector_4" d="M19.3335 23.333H27.3335" stroke="#232323" stroke-width="2" stroke-linecap="round"/>
<path id="Vector_5" d="M23.3335 27.333V19.333" stroke="#232323" stroke-width="2" stroke-linecap="round"/>
</g>
</g>
</g>
</svg>
