<svg width="265" height="44" viewBox="0 0 265 44" fill="none" xmlns="http://www.w3.org/2000/svg">
<g clip-path="url(#clip0_2007_3793)">
<path d="M67.4345 31.9303H63.3955V17.6015H67.4345V19.3566C68.5164 17.9381 69.9589 17.2409 71.786 17.2409C72.8198 17.2409 73.7334 17.4813 74.5508 17.9381C75.3682 18.3949 75.9212 18.9719 76.2337 19.6932C76.7145 18.9719 77.4117 18.3709 78.3013 17.9381C79.1908 17.4813 80.1525 17.265 81.1622 17.265C82.7249 17.265 83.9751 17.7698 84.8887 18.7555C85.8022 19.7412 86.259 21.1597 86.259 23.0109V31.9543H82.22V23.9004C82.22 21.929 81.4267 20.9433 79.8399 20.9433C79.2389 20.9433 78.6378 21.1357 78.0849 21.4963C77.5319 21.8569 77.1232 22.3377 76.8588 22.8907V31.9303H72.8198V23.9004C72.8198 21.929 72.0264 20.9433 70.4397 20.9433C69.8627 20.9433 69.2857 21.1357 68.7087 21.4963C68.1317 21.8569 67.6989 22.3137 67.4104 22.8426V31.9303H67.4345Z" fill="#080808"/>
<path d="M88.0371 13.827C88.0371 13.1298 88.2775 12.5528 88.7343 12.096C89.1911 11.6392 89.7681 11.3988 90.4413 11.3988C91.1144 11.3988 91.6914 11.6392 92.1482 12.096C92.605 12.5769 92.8454 13.1539 92.8454 13.827C92.8454 14.5002 92.605 15.0772 92.1482 15.534C91.6914 15.9908 91.1144 16.2312 90.4413 16.2312C89.7681 16.2312 89.1911 15.9908 88.7343 15.534C88.2775 15.0531 88.0371 14.4762 88.0371 13.827ZM92.4848 31.9303H88.4458V17.6016H92.4848V31.9303Z" fill="#080808"/>
<path d="M110.037 24.7419C110.037 22.6262 110.782 20.8471 112.273 19.4047C113.74 17.9622 115.639 17.2169 117.995 17.2169C120.327 17.2169 122.226 17.9381 123.717 19.4047C125.207 20.8471 125.953 22.6262 125.953 24.7419C125.953 26.8816 125.207 28.6847 123.717 30.1272C122.226 31.5697 120.327 32.2909 117.995 32.2909C115.687 32.2909 113.788 31.5697 112.273 30.1272C110.782 28.6847 110.037 26.8816 110.037 24.7419ZM114.028 24.7419C114.028 25.8959 114.413 26.8575 115.158 27.6028C115.903 28.3722 116.841 28.7568 117.995 28.7568C119.149 28.7568 120.086 28.3722 120.832 27.6028C121.577 26.8095 121.962 25.8718 121.962 24.7419C121.962 23.5879 121.577 22.6503 120.832 21.905C120.086 21.1356 119.149 20.751 117.995 20.751C116.841 20.751 115.903 21.1356 115.158 21.905C114.389 22.6503 114.028 23.6119 114.028 24.7419Z" fill="#080808"/>
<path d="M131.243 22.7945V31.9303H127.204V17.6015H131.243V19.3325C132.517 17.9381 134.128 17.2409 136.027 17.2409C137.662 17.2409 138.96 17.7698 139.874 18.8036C140.788 19.8374 141.244 21.3039 141.244 23.1551V31.9303H137.205V23.9726C137.205 22.9388 136.941 22.1694 136.436 21.6886C135.931 21.1837 135.282 20.9433 134.465 20.9433C133.864 20.9433 133.239 21.1116 132.637 21.4722C132.06 21.8088 131.58 22.2656 131.243 22.7945Z" fill="#080808"/>
<path d="M146.027 31.9303H143.959V18.0583H146.027V20.1259C147.181 18.5151 148.839 17.7218 151.027 17.7218C152.157 17.7218 153.119 17.9622 153.888 18.443C154.657 18.9238 155.186 19.597 155.475 20.4625C156.004 19.6451 156.749 18.9719 157.663 18.4911C158.6 17.9862 159.634 17.7458 160.812 17.7458C162.351 17.7458 163.577 18.2266 164.418 19.1883C165.284 20.15 165.717 21.5203 165.717 23.2994V31.9303H163.649V23.7562C163.649 21.0395 162.495 19.6932 160.211 19.6932C159.37 19.6932 158.528 19.9817 157.711 20.5587C156.869 21.1357 156.244 21.8569 155.835 22.6743C155.835 22.8666 155.836 23.083 155.86 23.3234C155.86 23.5639 155.884 23.7562 155.884 23.9004C155.884 24.0447 155.908 24.1408 155.908 24.213V31.9303H153.84V23.7562C153.84 21.0395 152.686 19.6932 150.402 19.6932C149.609 19.6932 148.767 19.9817 147.926 20.5587C147.926 20.5587 147.902 20.5587 147.902 20.5827C146.7 21.3761 146.051 22.7945 146.051 24.213V31.9303H146.027Z" fill="#080808"/>
<path d="M184.613 31.9544H182.546V18.0584H184.613V20.7029C185.142 19.8134 185.888 19.0681 186.921 18.5392C187.931 17.9862 189.013 17.7218 190.143 17.7218V19.8134C189.518 19.8134 188.941 19.9096 188.412 20.0778C187.522 20.3183 186.753 20.7029 186.08 21.2799C185.407 21.8569 184.926 22.482 184.613 23.2032V31.9544Z" fill="#080808"/>
<path d="M178.748 20.198V18.0583H180.767V31.9544H178.748V29.8147C177.954 31.2091 176.344 32.2669 173.891 32.2669C171.968 32.2669 170.309 31.5937 168.963 30.1993C167.641 28.8049 166.943 27.0739 166.943 25.0064C166.943 22.9388 167.617 21.2318 168.963 19.8374C170.285 18.443 171.944 17.7458 173.891 17.7458C176.368 17.7458 177.954 18.8036 178.748 20.198ZM177.522 28.877C178.507 27.8433 178.988 26.5691 178.988 25.0064C178.988 23.4437 178.507 22.1694 177.522 21.1837C176.56 20.15 175.358 19.6451 173.867 19.6451C172.449 19.6451 171.295 20.15 170.333 21.1837C169.42 22.1935 168.939 23.4677 168.939 25.0064C168.939 26.545 169.396 27.8433 170.333 28.877C171.295 29.8868 172.449 30.3917 173.867 30.3917C175.358 30.3917 176.584 29.8868 177.522 28.877Z" fill="#080808"/>
<path d="M191.416 12.9135H193.484V23.7802L200.095 18.0583H202.908L195.599 24.3091L203.942 31.9063H200.985L193.484 25.0785V31.9063H191.416V12.9135Z" fill="#080808"/>
<path d="M210.29 32.2669C208.126 32.2669 206.299 31.5937 204.832 30.2234C203.39 28.877 202.645 27.146 202.645 25.0063C202.645 22.9388 203.294 21.2078 204.592 19.8134C205.914 18.419 207.597 17.7218 209.665 17.7218C210.771 17.7218 211.756 17.9381 212.622 18.3949C213.487 18.8517 214.16 19.4287 214.665 20.15C215.17 20.8712 215.531 21.6405 215.795 22.4579C216.036 23.2754 216.18 24.0928 216.18 24.9102V25.4872H204.784C204.904 26.9777 205.505 28.1798 206.587 29.0694C207.669 29.9589 209.04 30.4157 210.698 30.4157C212.309 30.4157 213.776 29.9829 215.146 29.1174V30.9446C214.016 31.8341 212.381 32.2669 210.29 32.2669ZM204.808 23.8043H214.088C214.04 22.7224 213.632 21.7607 212.886 20.8952C212.189 20.0057 211.083 19.573 209.617 19.573C208.246 19.573 207.116 19.9817 206.227 20.8472C205.361 21.7127 204.88 22.6984 204.808 23.8043Z" fill="#080808"/>
<path d="M231.111 32.2669C230.005 32.2669 228.923 32.1226 227.865 31.8582C226.807 31.5937 225.966 31.2331 225.389 30.8484V28.7328C227.072 29.8627 228.971 30.4157 231.062 30.4157C232.241 30.4157 233.178 30.2234 233.851 29.8387C234.524 29.454 234.861 28.9011 234.861 28.2279C234.861 27.6269 234.524 27.146 233.875 26.7614C233.683 26.6171 233.202 26.4248 232.409 26.2565C232.168 26.1844 231.856 26.1123 231.471 26.0161C230.966 25.8718 230.63 25.7997 230.534 25.7757C228.803 25.3429 227.552 24.814 226.807 24.213C226.062 23.6119 225.677 22.7464 225.677 21.5925C225.677 20.3904 226.158 19.4528 227.144 18.7555C228.129 18.0824 229.476 17.7458 231.255 17.7458C233.346 17.7458 235.029 18.1545 236.304 18.9719V21.0155C234.741 20.0778 233.082 19.621 231.351 19.621C230.173 19.621 229.307 19.8134 228.706 20.174C228.105 20.5346 227.793 21.0395 227.793 21.6646C227.793 22.3618 228.153 22.8667 228.851 23.2032C228.995 23.2513 229.163 23.2994 229.356 23.3956C229.548 23.4917 229.764 23.5639 229.981 23.6119L230.606 23.7802C231.062 23.9245 231.519 24.0447 231.976 24.0928C233.707 24.5255 234.957 25.0304 235.775 25.6314C236.592 26.2325 237.001 27.122 237.001 28.252C237.001 29.5262 236.448 30.5119 235.342 31.2091C234.212 31.9063 232.818 32.2669 231.111 32.2669Z" fill="#080808"/>
<path d="M98.9784 11.3748H94.9395V31.9303H98.9784V11.3748Z" fill="#080808"/>
<path d="M109.508 20.9914V17.6015H105.445V12.9134H101.406V17.6015V20.9914V23.4196V27.4586C101.406 30.6801 102.969 32.2909 106.094 32.2909C107.537 32.2909 108.667 32.0265 109.508 31.5216V28.1558C108.811 28.4924 108.114 28.6606 107.417 28.6606C106.719 28.6606 106.239 28.4924 105.926 28.1798C105.614 27.8673 105.469 27.3624 105.469 26.6412V20.9914H109.508Z" fill="#080808"/>
<path d="M224.306 19.8614V18.0583H219.449V12.9134H217.382V18.0583V19.8614V27.7471V27.9634C217.382 29.3098 217.718 30.3436 218.368 31.1129C219.017 31.8582 220.002 32.2428 221.277 32.2428C222.575 32.2428 223.512 32.0265 224.113 31.6178V29.7185C223.44 30.1031 222.695 30.2955 221.854 30.2955C220.988 30.2955 220.363 30.0791 219.978 29.6464C219.618 29.2376 219.425 28.4683 219.425 27.3624V19.8614H224.306Z" fill="#080808"/>
<path d="M23.6058 14.1188L12.8145 7.80803L-0.0013446 29.7228L10.79 36.0336L23.6058 14.1188Z" fill="#FE0000"/>
<path d="M39.764 14.0243L28.9727 7.71347L16.1569 29.6283L26.9482 35.9391L39.764 14.0243Z" fill="#FE0000"/>
<path d="M46.1238 27.1141L37.3662 21.9926L32.2447 30.7502L41.0024 35.8717L46.1238 27.1141Z" fill="#080808"/>
</g>
<defs>
<clipPath id="clip0_2007_3793">
<rect width="265" height="44" fill="white"/>
</clipPath>
</defs>
</svg>
